<svg width="239" height="40" viewBox="0 0 239 40" fill="none" xmlns="http://www.w3.org/2000/svg">
<g clip-path="url(#clip0_1264_29834)">
<mask id="mask0_1264_29834" style="mask-type:luminance" maskUnits="userSpaceOnUse" x="0" y="0" width="239" height="40">
<path d="M238.498 0H0V40H238.498V0Z" fill="white"/>
</mask>
<g mask="url(#mask0_1264_29834)">
<path fill-rule="evenodd" clip-rule="evenodd" d="M237.229 22.1571C236.751 21.57 236.082 21.3379 235.386 21.3379C234.976 21.3379 234.553 21.5018 234.239 21.6519C233.884 21.8158 233.461 22.0478 232.969 22.3345C232.041 22.8943 230.867 23.6178 229.447 24.5188H229.434C228.082 25.4062 226.567 26.3345 224.915 27.3311C223.277 28.314 221.556 29.2424 219.782 30.1161C218.007 30.9762 216.287 31.6861 214.594 32.2185C213.898 32.4369 213.229 32.6144 212.574 32.7373C208.355 33.4199 210.526 28.7373 210.526 28.7373C211.277 28.4369 212.068 28.1093 212.901 27.7407C214.43 27.0581 215.946 26.2526 217.461 25.3516C218.99 24.4369 220.382 23.4676 221.652 22.4301H221.666H221.679C222.963 21.3379 224.014 20.1912 224.833 18.9762V18.9625C225.666 17.6656 226.116 16.2867 226.116 14.8669C226.116 12.5052 225.365 10.4983 223.782 8.95568C222.184 7.41302 220.055 6.70312 217.502 6.70312C216 6.70312 214.526 7.2492 213.106 8.21848C211.686 9.14681 210.362 10.4301 209.133 12.0137C207.932 13.5564 206.84 15.3311 205.857 17.3106V17.3243C204.901 19.2765 204.137 21.3243 203.563 23.4676V23.4813V23.4949C203.017 25.6519 202.758 27.7953 202.758 29.925C202.758 33.0512 203.304 35.5768 204.587 37.3106C205.884 39.0581 207.727 39.9318 209.98 39.9318C211.618 39.9318 213.406 39.5905 215.331 38.9352C217.283 38.2799 219.277 37.4335 221.311 36.3687C223.372 35.3175 225.365 34.1844 227.277 32.983C229.188 31.7816 230.908 30.6212 232.451 29.5018H232.464H232.478C234.007 28.3414 235.249 27.3175 236.178 26.4301C236.655 25.9932 237.038 25.5973 237.324 25.2424C237.461 25.0649 237.597 24.8874 237.707 24.6826C237.802 24.5052 237.925 24.2321 237.925 23.8908C237.884 23.1946 237.666 22.6212 237.229 22.1571ZM212.942 18.7714C213.843 16.983 214.758 15.5632 215.673 14.512C216.642 13.4062 217.338 13.1195 217.775 13.1195C218.362 13.1195 218.594 13.256 218.69 13.3379C218.758 13.4062 218.894 13.57 218.894 14.0615C218.894 14.7441 218.662 15.4676 218.103 16.2458C217.543 17.0376 216.792 17.8021 215.823 18.5666C214.812 19.3584 213.72 20.1366 212.519 20.8874C212.26 21.0512 212 21.2151 211.741 21.3789C212.123 20.4915 212.519 19.6315 212.942 18.7714Z" fill="white"/>
<path d="M185.516 38.8806V11.3311H192.628V15.5496C193.338 14.1844 194.226 13.0922 195.29 12.2731C196.396 11.454 197.679 11.0444 199.127 11.0444H202.744V17.4335H198.471C196.437 17.4335 194.949 18.2253 194.034 19.8226C193.106 21.3789 192.642 23.727 192.642 26.8806V38.8806H185.516Z" fill="white"/>
<path d="M166.798 39.3312C163.644 39.3312 161.173 38.2527 159.357 36.1094C157.542 33.9251 156.641 30.7715 156.641 26.6623V11.1128H163.699V25.9933C163.699 28.3688 164.163 30.1708 165.091 31.4404C166.019 32.6964 167.344 33.3244 169.091 33.3244C171.084 33.3244 172.627 32.6145 173.705 31.2084C174.811 29.8022 175.371 27.8363 175.371 25.3244V11.1128H182.484V38.6623H175.371V34.6077C174.552 36.0548 173.432 37.2015 171.985 38.048C170.552 38.8944 168.832 39.3312 166.798 39.3312Z" fill="white"/>
<path d="M148.861 38.8805C147.005 38.8805 145.339 37.9932 144.083 37.5427C142.827 37.0921 141.885 36.2867 141.244 35.099C140.616 33.8703 140.302 32.0956 140.302 29.7611V16.6007H135.523V10.6621H140.302V3.33105H147.414V10.6621H154.24V16.6007H147.414V28.8737C147.414 30.2799 147.633 31.1945 148.083 31.5904C148.561 31.959 149.503 32.1502 150.923 32.1502H154.035V38.8669L148.861 38.8805Z" fill="white"/>
<path d="M96.3672 38.8805V11.3311H103.48V38.8805H96.3672Z" fill="white"/>
<path d="M64.7422 38.8805V11.3311H71.8548V15.4949C72.7422 14.0205 73.9709 12.8464 75.5272 12C77.0835 11.1126 78.8992 10.6621 80.9743 10.6621C84.3872 10.6621 87.022 11.7543 88.9197 13.9386C90.8036 16.0819 91.7592 19.2218 91.7592 23.331V38.8805H84.6466V24C84.6466 21.6246 84.1415 19.8225 83.1449 18.5529C82.1756 17.2969 80.6876 16.6689 78.6398 16.6689C76.6739 16.6689 75.0494 17.3788 73.7524 18.785C72.4965 20.1911 71.8685 22.157 71.8685 24.6689V38.8942H64.7422V38.8805Z" fill="white"/>
<path d="M53.3281 39.0988V11.5493H60.4408V39.0988H53.3281Z" fill="white"/>
<path d="M49.217 8.49134C49.217 9.72001 49.1214 11.3036 48.9303 13.2012C48.7801 15.0989 48.5754 17.1603 48.316 19.3855C48.0975 21.6108 47.8382 23.8634 47.5378 26.1296C47.2784 28.3548 47.019 30.4299 46.7597 32.3685C46.5003 34.2388 46.3091 35.7814 46.159 36.9828C46.0907 37.8565 45.7221 38.6074 45.0395 39.1808C44.3842 39.7268 43.6197 39.9999 42.7733 39.9999C41.8313 39.9999 40.9849 39.6722 40.316 39.0033C39.5788 38.2661 39.3194 37.2422 39.3194 36.1637C39.3194 33.72 39.4286 31.0852 39.6607 28.2456C39.8791 25.3787 40.1658 22.5528 40.4934 19.7541C40.63 18.6347 40.7528 17.5562 40.8893 16.505C40.4388 17.1466 39.9883 17.8156 39.5242 18.4982C38.1044 20.6142 36.6573 22.7166 35.1692 24.8053C34.2682 26.0613 33.3945 27.249 32.5207 28.3821C31.9337 29.1466 31.3603 29.8702 30.787 30.5801V30.5937C29.3535 32.3139 28.0566 33.7473 26.8552 34.8668H26.8416C26.2272 35.4265 25.6402 35.8634 25.0668 36.1774C24.4934 36.4913 23.8928 36.6961 23.2648 36.6961C21.5583 36.6961 20.0975 36.0135 18.8962 34.7303V34.7166C17.6948 33.3787 17.1078 31.7132 17.1078 29.8019C17.1078 29.4743 17.1214 29.092 17.1487 28.6688C17.1897 28.15 17.2443 27.5767 17.3262 26.935C17.4764 25.7473 17.6402 24.4913 17.8313 23.1944C18.0225 21.8975 18.1863 20.7098 18.3364 19.604C18.4866 18.4709 18.5549 17.6791 18.5549 17.1876C18.5549 17.0374 18.5549 16.9009 18.5412 16.778C18.3774 16.9419 18.1999 17.1603 17.9815 17.4333V17.447V17.4606C17.2443 18.3753 16.3979 19.5767 15.4559 21.0647C14.5412 22.5664 13.5856 24.1774 12.589 25.8702C12.0156 26.8804 11.4696 27.8634 10.9371 28.8053C10.5685 29.447 10.2272 30.075 9.87228 30.6893V30.7029C9.02586 32.1774 8.28866 33.3651 7.67433 34.2524C7.18286 35.0852 6.67774 35.7814 6.15897 36.2456C5.53098 36.819 4.75283 37.092 3.90641 37.092C2.75965 37.092 1.81767 36.464 1.09412 35.563L1.08047 35.5494L1.06682 35.5357C0.34327 34.5801 0.015625 33.4197 0.015625 32.15C0.015625 31.4265 0.138492 30.3617 0.356922 29.0238C0.589004 27.6313 0.862041 26.1296 1.20334 24.4777V24.464V24.4504C1.57194 22.8258 1.92689 21.2422 2.25453 19.6859V19.6722V19.6586C2.62313 18.0613 2.93713 16.7098 3.19651 15.604C3.49685 14.3207 3.92006 13.2012 4.60266 12.5186C5.20334 11.918 5.95419 11.5221 6.82791 11.5221C7.83815 11.5221 8.71187 11.9043 9.33986 12.6961C10.0361 13.4743 10.2682 14.5528 10.2682 15.6995C10.2682 15.9316 10.2136 16.2183 10.159 16.4504C10.1044 16.7234 10.0088 17.0784 9.89958 17.4879V17.5016C9.76307 17.9657 9.61289 18.4982 9.43542 19.0989C9.80402 18.4709 10.1726 17.8565 10.5412 17.2422C11.4832 15.6313 12.4252 14.1569 13.3672 12.8326C14.3228 11.4538 15.2921 10.3207 16.2614 9.47428C17.2579 8.60056 18.3637 8.02718 19.5515 8.02718C20.7528 8.02718 21.8723 8.40943 22.8552 9.11933C23.8655 9.82923 24.6573 10.7576 25.2579 11.9043C25.8586 13.0784 26.159 14.3617 26.159 15.7405C26.159 16.6961 25.9951 17.9794 25.6948 19.563C25.3945 21.0784 25.0805 22.7166 24.7528 24.4913C24.5754 25.5562 24.4388 26.5664 24.3433 27.563C25.1078 26.6756 25.9132 25.6791 26.7733 24.5733C28.0566 22.8804 29.3672 21.092 30.6914 19.2217L30.705 19.2081C32.0702 17.3241 33.4218 15.4675 34.7597 13.6518C36.0975 11.7951 37.3399 10.1159 38.5003 8.62786C39.7016 7.0852 40.7665 5.84288 41.7085 4.91455L41.7221 4.9009C42.2136 4.42309 42.6914 4.04083 43.1419 3.75414C43.5788 3.48111 44.0975 3.24902 44.6573 3.24902C45.9815 3.24902 47.1692 3.63128 48.0156 4.54595C48.903 5.51524 49.217 6.92138 49.217 8.49134Z" fill="white"/>
<path d="M59.9902 3.33106C59.9902 5.17406 58.5022 6.66212 56.6592 6.66212C54.8162 6.66212 53.3281 5.17406 53.3281 3.33106C53.3281 1.48805 54.8162 0 56.6592 0C58.5022 0 59.9902 1.48805 59.9902 3.33106Z" fill="white"/>
<path d="M103.303 3.33106C103.303 5.17406 101.815 6.66212 99.9717 6.66212C98.1287 6.66212 96.6406 5.17406 96.6406 3.33106C96.6406 1.48805 98.1423 0 99.9717 0C101.801 0 103.303 1.48805 103.303 3.33106Z" fill="white"/>
<path d="M117.262 39.5495C115.228 39.5495 113.412 39.1809 111.815 38.4437C110.259 37.7065 109.044 36.7099 108.143 35.4403C107.255 34.1843 106.805 32.7918 106.805 31.2764C106.805 28.4232 107.856 26.2252 109.972 24.6689C112.115 23.0717 115.078 22.2799 118.859 22.2799C120.457 22.2799 121.808 22.3891 122.914 22.6075C124.061 22.8259 124.989 23.058 125.685 23.2764V21.9386C125.685 20.1229 125.153 18.8123 124.074 17.9932C123.037 17.1741 121.699 16.7645 120.074 16.7645C118.818 16.7645 117.726 16.9829 116.798 17.4334C115.87 17.884 115.283 18.6894 115.023 19.8771H107.747C108.047 16.9147 109.317 14.6348 111.583 13.0512C113.876 11.4539 116.716 10.6621 120.074 10.6621C124.224 10.6621 127.474 11.645 129.849 13.6109C132.252 15.5358 133.453 18.3072 133.453 21.9386V27.6587C133.453 29.0648 133.521 30.116 133.672 30.8259C133.863 31.4949 134.136 31.9181 134.504 32.1092C134.873 32.3003 135.351 32.3822 135.951 32.3822H136.17V38.8805H134.477C132.484 38.8805 130.805 38.6348 129.48 38.157C128.143 37.6382 127.16 36.6553 126.532 35.2082C125.535 36.4642 124.252 37.5017 122.695 38.3208C121.139 39.1399 119.323 39.5495 117.262 39.5495ZM114.641 30.4437C114.641 31.413 115.064 32.1775 115.924 32.7782C116.784 33.3788 117.808 33.6655 119.037 33.6655C120.771 33.6655 122.149 33.1604 123.146 32.1638C124.143 31.1263 124.852 29.8157 125.262 28.2184C124.525 28 123.651 27.7952 122.655 27.6041C121.685 27.3857 120.716 27.2764 119.706 27.2764C118.108 27.2764 116.88 27.5495 115.979 28.1092C115.091 28.6553 114.641 29.4334 114.641 30.4437Z" fill="white"/>
</g>
</g>
<defs>
<clipPath id="clip0_1264_29834">
<rect width="238.498" height="40" fill="white"/>
</clipPath>
</defs>
</svg>
